<?xml version="1.0" encoding="utf-8"?>
<!-- Generator: Adobe Illustrator 23.0.1, SVG Export Plug-In . SVG Version: 6.00 Build 0)  -->
<svg version="1.1" id="Capa_2" xmlns="http://www.w3.org/2000/svg" xmlns:xlink="http://www.w3.org/1999/xlink" x="0px" y="0px"
	 viewBox="0 0 2122 1213.6" style="enable-background:new 0 0 2122 1213.6;" xml:space="preserve">
<style type="text/css">
	.st0{fill:#FFFFFF;}
</style>
<g>
	<path class="st0" d="M1514.2,688.9c117.3,12.4,214.7,29.7,281.4,49.6c33.3,9.9,59,20.5,74.7,30.5c7.9,4.9,13.2,9.7,15.9,13.2
		c1.4,1.7,2.1,3.1,2.5,4.1s0.4,1.5,0.4,2.1c0,0.8-0.1,1.8-1.5,4.1c-1.2,2.1-3.7,5-7.6,8.3c-7.3,6.2-19.6,13.4-36,20.4
		c-28.8,12.4-70.1,24.5-121.1,35.2c-76.5,16.2-174.9,29.6-287.7,38.9s-240,14.6-374.7,14.6v39.9c235.2,0,448.2-15.8,603.3-41.7
		c38.8-6.5,74-13.6,105.1-21.2c23.3-5.8,44.4-11.8,63-18.3c27.9-9.7,50.3-20,67.1-32.1c8.4-6.1,15.5-12.7,21-20.6
		c2.7-4,5-8.2,6.6-12.9c1.6-4.6,2.5-9.6,2.5-14.6c0-5.7-1.2-11.4-3.2-16.6c-3.8-9.8-10.4-17.7-18.3-24.7
		c-13.9-12.2-32.7-22.2-56.3-31.7c-35.4-14.1-81.9-26.6-138.1-37.7c-56.1-11.1-121.8-20.7-194.9-28.4L1514.2,688.9z"/>
	<path class="st0" d="M210,826.3c9.3,9.1,21.1,16.8,35.3,24c24.9,12.6,57.6,23.8,97.4,34.1c59.8,15.4,135.7,28.6,223.8,39
		c71.7,8.5,151.5,15.2,237.1,19.7l-0.5,101.4c0,7.3,4,14.1,10.4,17.6s14.3,3.2,20.5-0.8l186.1-121.5c5.6-3.7,9-9.9,9-16.6
		s-3.3-13-8.9-16.7L835.3,783.2c-6.1-4.1-14-4.5-20.4-1c-6.5,3.4-10.5,10.2-10.6,17.5l-0.5,103.5c-160.5-8.5-300.1-24.8-401.9-46
		c-28.6-6-54.3-12.3-76.5-18.9c-33.3-9.9-58.9-20.5-74.6-30.5c-7.9-4.9-13.2-9.7-15.9-13.2c-1.4-1.7-2.1-3.1-2.5-4.1
		s-0.4-1.5-0.4-2.1c0-0.5,0.1-1.1,0.4-2c0.6-1.7,2.6-5,7-8.9c7.6-7,22.1-15.6,42.1-23.7c30-12.4,72.4-24.3,124.4-35
		s113.5-20.1,182.5-27.8l-4.5-39.7c-113.7,12.8-208,30-275.3,50.6c-33.7,10.4-60.6,21.5-80.7,34.4c-10,6.5-18.4,13.5-24.9,22
		c-3.2,4.2-5.9,8.9-7.9,13.9c-1.9,5.1-3,10.6-3,16.2c0,7.7,2.1,15.1,5.5,21.6C200.8,816.1,205.1,821.4,210,826.3z M844.2,837
		l128.9,86l-129.7,84.7L844.2,837z"/>
	<path class="st0" d="M746.7,722.8c-27.6,0-52.4-11.1-70.5-29.2S647,650.7,647,623.1c0-11-8.9-20-20-20c-11,0-20,8.9-20,20
		c0,38.5,15.7,73.5,40.9,98.7s60.2,40.9,98.7,40.9s73.5-15.7,98.7-40.9c25.2-25.2,40.9-60.2,40.9-98.7s-15.7-73.5-40.9-98.7
		c-8-8-17-15-26.8-20.9c9.8-5.9,18.8-12.9,26.8-20.9c25.2-25.2,40.9-60.2,40.9-98.7s-15.7-73.5-40.9-98.7s-60.2-40.9-98.7-40.9
		s-73.5,15.7-98.7,40.9S607,345.4,607,383.9c0,11,8.9,20,20,20c11,0,20-8.9,20-20c0-27.6,11.1-52.4,29.2-70.5
		c18.1-18.1,42.9-29.2,70.5-29.2s52.4,11.1,70.5,29.2c18.1,18.1,29.2,42.9,29.2,70.5s-11.1,52.4-29.2,70.5
		c-18.1,18.1-42.9,29.2-70.5,29.2c-11,0-20,8.9-20,20s8.9,20,20,20c27.6,0,52.4,11.1,70.5,29.2c18.1,18.1,29.2,42.9,29.2,70.5
		s-11.1,52.4-29.2,70.5C799.1,711.7,774.3,722.8,746.7,722.8z"/>
	<path class="st0" d="M1055,762.7c38.5,0,73.5-15.7,98.7-40.9c25.2-25.2,40.9-60.2,40.9-98.7s-15.7-73.5-40.9-98.7
		c-25.2-25.2-60.2-40.9-98.7-40.9c-16.5,0-32.3,2.9-47,8.1l103.6-219c4.7-10,0.5-21.9-9.5-26.6c-10-4.7-21.9-0.5-26.6,9.5
		L936.9,548.7c-13.6,21.6-21.5,47.1-21.5,74.4c0,38.5,15.7,73.5,40.9,98.7C981.5,747,1016.5,762.7,1055,762.7z M984.5,552.6
		c18.1-18.1,42.9-29.2,70.5-29.2s52.4,11.1,70.5,29.2c18.1,18.1,29.2,42.9,29.2,70.5c0,27.6-11.1,52.4-29.2,70.5
		s-42.9,29.2-70.5,29.2s-52.4-11.1-70.5-29.2s-29.2-42.9-29.2-70.5C955.3,595.5,966.4,570.7,984.5,552.6z"/>
	<path class="st0" d="M1353.5,762.7c38.5,0,73.5-15.7,98.7-40.9c25.2-25.2,40.9-60.2,40.9-98.7V383.8c0-38.5-15.7-73.5-40.9-98.7
		c-25.2-25.2-60.2-40.9-98.7-40.9s-73.5,15.7-98.7,40.9s-40.9,60.2-40.9,98.7v239.3c0,38.5,15.7,73.5,40.9,98.7
		C1280,747,1315,762.7,1353.5,762.7z M1253.8,383.8c0-27.6,11.1-52.4,29.2-70.5s42.9-29.2,70.5-29.2s52.4,11.1,70.5,29.2
		c18.1,18.1,29.2,42.9,29.2,70.5v239.3c0,27.6-11.1,52.4-29.2,70.5s-42.9,29.2-70.5,29.2s-52.4-11.1-70.5-29.2s-29.2-42.9-29.2-70.5
		V383.8z"/>
	<path class="st0" d="M1542.5,305.9c19.8,0,37.8-8.1,50.8-21s21-31,21-50.8s-8.1-37.8-21-50.8s-31-21-50.8-21s-37.8,8.1-50.8,21
		s-21,31-21,50.8s8.1,37.8,21,50.8C1504.7,297.9,1522.8,305.9,1542.5,305.9z M1520,211.6c5.8-5.8,13.7-9.3,22.5-9.3
		c8.9,0,16.7,3.5,22.5,9.3s9.3,13.7,9.3,22.5c0,8.9-3.5,16.7-9.3,22.5s-13.7,9.3-22.5,9.3c-8.9,0-16.7-3.5-22.5-9.3
		s-9.3-13.7-9.3-22.5S1514.2,217.4,1520,211.6z"/>
</g>
</svg>
