<?xml version="1.0" encoding="utf-8"?>
<!-- Generator: Adobe Illustrator 23.0.1, SVG Export Plug-In . SVG Version: 6.00 Build 0)  -->
<svg version="1.1" id="Camada_1" xmlns="http://www.w3.org/2000/svg" xmlns:xlink="http://www.w3.org/1999/xlink" x="0px" y="0px"
	 viewBox="0 0 147.4 20.1" style="enable-background:new 0 0 147.4 20.1;" xml:space="preserve">
<style type="text/css">
	.st0{fill:#585757;}
	.st1{clip-path:url(#SVGID_2_);fill:#585757;}
</style>
<polygon class="st0" points="0,0.3 0,20.1 12.1,20.1 12.1,17.2 3.2,17.2 3.2,0.3 "/>
<g>
	<defs>
		<rect id="SVGID_1_" y="0" width="147.4" height="20.1"/>
	</defs>
	<clipPath id="SVGID_2_">
		<use xlink:href="#SVGID_1_"  style="overflow:visible;"/>
	</clipPath>
	<path class="st1" d="M51.8,11.7c0.7,0,1.3-0.1,1.8-0.4c0.5-0.3,1-0.6,1.4-1c0.4-0.4,0.7-0.9,1-1.4c0.2-0.5,0.3-1.1,0.3-1.7
		c0-0.6-0.1-1.1-0.3-1.7c-0.2-0.5-0.5-1-1-1.4c-0.4-0.4-0.9-0.7-1.4-1c-0.5-0.3-1.1-0.4-1.8-0.4h-1.3h-2.9h-3.2V0.3h7.1
		c1.8,0,3.4,0.4,4.7,1.2c0.8,0.4,1.4,1,2,1.6c0.5,0.6,1,1.4,1.2,2.2c0.1,0.2,0.1,0.4,0.1,0.5c0,0.1,0,0.1,0,0.1c0,0.1,0,0.2,0,0.3
		c0,0.1,0,0.2,0,0.3v0.1c0,0.1,0,0.2,0,0.3c0,0.1,0,0.2,0,0.4v0.1c0,0.1,0,0.2,0,0.4c0,0.1,0,0.2,0,0.3l-0.1,0.7c0,0,0,0.1,0,0.1
		c0,0.1,0,0.2-0.1,0.2c0,0.1-0.1,0.2-0.1,0.2c-0.3,0.8-0.7,1.6-1.2,2.2c-0.5,0.6-1.2,1.2-2,1.6c-0.7,0.4-1.4,0.6-2.2,0.8
		c-0.8,0.2-1.6,0.3-2.5,0.3h-3.9v1.4v4.5h-3.2v-8.4v-0.1l3.2,0.1h3H51.8z"/>
	<path class="st1" d="M32.6,0.4h3.1v13.2c0,0.9-0.2,1.8-0.6,2.6c-0.4,0.8-0.9,1.5-1.6,2.1c-0.7,0.6-1.5,1-2.4,1.4
		c-0.9,0.3-1.9,0.5-2.9,0.5c-1,0-2-0.2-2.8-0.5c-0.9-0.3-1.7-0.8-2.3-1.4c-0.7-0.6-1.2-1.3-1.6-2.1c-0.4-0.8-0.6-1.6-0.6-2.6V0.4
		h3.1v13.2c0,0.5,0.1,1,0.3,1.5c0.2,0.5,0.5,0.9,0.9,1.2c0.4,0.3,0.8,0.6,1.3,0.8c0.5,0.2,1.1,0.3,1.6,0.3c0.6,0,1.2-0.1,1.7-0.3
		c0.5-0.2,1-0.5,1.4-0.8c0.4-0.3,0.7-0.8,0.9-1.2c0.2-0.5,0.3-0.9,0.3-1.5V0.4z"/>
	<polygon class="st1" points="126,20.1 129.5,20.1 136.7,7 142.2,17 136.7,17 136.7,20.1 143.9,20.1 145.3,20.1 147.4,20.1 
		136.7,0.4 	"/>
	<rect x="68.6" y="0.5" class="st1" width="14.9" height="2.8"/>
	<rect x="68.6" y="17.3" class="st1" width="14.9" height="2.8"/>
	<rect x="68.6" y="8.6" class="st1" width="7.7" height="2.8"/>
	<rect x="68.6" y="8.6" class="st1" width="3.2" height="10.4"/>
	<path class="st1" d="M92.4,20.1h3.2v-7.8l-3.2-3.7V20.1z M117.2,0l-12.4,13.5L92.4,0l0,4.2l10.3,11.6l2.1,2.3l2.1-2.3l7.3-8.1v12.4
		h3V0z"/>
</g>
</svg>
