<?xml version="1.0" encoding="utf-8"?>
<!-- Generator: Adobe Illustrator 23.0.1, SVG Export Plug-In . SVG Version: 6.00 Build 0)  -->
<svg version="1.1" id="Camada_1" xmlns="http://www.w3.org/2000/svg" xmlns:xlink="http://www.w3.org/1999/xlink" x="0px" y="0px"
	 viewBox="0 0 232.5 25" style="enable-background:new 0 0 232.5 25;" xml:space="preserve">
<style type="text/css">
	.st0{fill:#C83665;}
</style>
<path d="M1.3,18.3v6.1H0V9.9h4.7c2.7,0,4.4,1.8,4.4,4.2c0,2.4-1.8,4.2-4.4,4.2H1.3z M4.5,17.1c2.1,0,3.3-1.2,3.3-3
	c0-1.8-1.3-3-3.3-3H1.3v6H4.5z"/>
<path d="M19.8,9.7c3.5,0,7.1,2.7,7.1,7.5c0,4.8-3.5,7.5-7.1,7.5c-3.5,0-7-2.6-7-7.5C12.7,12.4,16.2,9.7,19.8,9.7 M19.8,23.5
	c2.9,0,5.8-2.2,5.8-6.3c0-4.1-2.8-6.3-5.8-6.3c-3,0-5.7,2.2-5.7,6.3C14,21.3,16.8,23.5,19.8,23.5"/>
<polygon points="47.4,9.9 43.8,22.6 39.8,9.9 38.4,9.9 34.4,22.5 30.8,9.9 29.5,9.9 33.7,24.4 35.1,24.4 39.1,11.6 43.1,24.4 
	44.5,24.4 48.7,9.9 "/>
<polygon points="52.8,9.9 52.8,24.4 61.3,24.4 61.3,23.2 54.1,23.2 54.1,17.7 60.7,17.7 60.7,16.6 54.1,16.6 54.1,11.1 61.3,11.1 
	61.3,9.9 "/>
<path d="M70.6,18.2h-3v6.2h-1.3V9.9h5c2.6,0,4.3,1.8,4.3,4.1c0,2.1-1.4,3.7-3.6,4l3.6,6.3h-1.5L70.6,18.2z M71.1,17
	c1.9,0,3.2-1.1,3.2-2.9c0-1.8-1.3-3-3.2-3h-3.5V17H71.1z"/>
<polygon points="80.4,9.9 80.4,24.4 88.9,24.4 88.9,23.2 81.7,23.2 81.7,17.7 88.3,17.7 88.3,16.6 81.7,16.6 81.7,11.1 88.9,11.1 
	88.9,9.9 "/>
<path d="M93.8,24.4V9.9h4.5c3.7,0,6.9,2.5,6.9,7.2s-3.2,7.2-6.9,7.2H93.8z M98.2,23.2c3,0,5.6-2,5.6-6c0-4.1-2.6-6.1-5.6-6.1h-3.2
	v12.2H98.2z"/>
<path d="M119.9,13.3c2.3,0,3.6,1.3,3.6,3.1c0,1.2-0.7,2.2-1.7,2.5c1.1,0.3,2.1,1.2,2.1,2.7c0,1.9-1.5,3.3-3.7,3.3h-4.7V13.3H119.9z
	 M119.5,18c0.9,0,1.5-0.5,1.5-1.3c0-0.8-0.5-1.2-1.5-1.2h-1.4V18H119.5z M119.7,22.9c1,0,1.6-0.5,1.6-1.4c0-0.8-0.6-1.4-1.6-1.4
	h-1.6v2.7H119.7z"/>
<polygon points="132.6,13.3 130.2,17.6 127.8,13.3 124.8,13.3 128.8,20.1 128.8,25 131.4,25 131.4,20.1 135.5,13.3 "/>
<path d="M228.9,0c-2,0-3.6,1.6-3.6,3.6c0,2.4,3.6,5.6,3.6,5.6s3.6-3.2,3.6-5.6C232.5,1.6,230.8,0,228.9,0 M228.9,5.5
	c-1,0-1.8-0.8-1.8-1.8c0-1,0.8-1.8,1.8-1.8c1,0,1.8,0.8,1.8,1.8C230.7,4.6,229.9,5.5,228.9,5.5"/>
<path class="st0" d="M173.9,25c-4.4,0-8.1-3.6-8.1-8.1s3.6-8.1,8.1-8.1c4.4,0,8.1,3.6,8.1,8.1S178.4,25,173.9,25 M173.9,11.8
	c-2.8,0-5.1,2.3-5.1,5.1s2.3,5.1,5.1,5.1s5.1-2.3,5.1-5.1S176.8,11.8,173.9,11.8"/>
<path class="st0" d="M201.5,9.2h-3v9.5c0,1.8-1.5,3.3-3.3,3.3c-1.8,0-3.3-1.5-3.3-3.3V9.2h-3v9.5v0V19h0c0.1,3.3,2.9,6,6.2,6
	c3.4,0,6.1-2.7,6.2-6h0V9.2z"/>
<rect x="227.4" y="11.2" class="st0" width="3" height="13.5"/>
<polygon class="st0" points="156.1,9.2 156.1,15.5 149.3,15.5 149.3,9.2 146.3,9.2 146.3,24.6 149.3,24.6 149.3,18.4 156.1,18.4 
	156.1,24.6 159,24.6 159,9.2 "/>
<path class="st0" d="M214.1,25c-2.5,0-4.5-1.4-5.7-2.6l2.1-2.1c0.8,0.8,2.1,1.7,3.6,1.7c1.3,0,2.9-0.5,2.9-1.7
	c0-0.6-0.4-1.3-3.3-2.1c-1.5-0.4-5-1.4-5-4.7c0-2.6,2.3-4.6,5.4-4.6c2.9,0,4.8,1.6,5.5,2.3l-2.1,2.1c-0.4-0.4-1.7-1.5-3.4-1.5
	c-1.5,0-2.5,0.7-2.5,1.6c0,0.3,0,1.1,2.9,1.9c1.6,0.5,5.5,1.5,5.5,5C220,23,217.6,25,214.1,25"/>
</svg>
