<?xml version="1.0" encoding="utf-8"?>
<!-- Generator: Adobe Illustrator 23.0.1, SVG Export Plug-In . SVG Version: 6.00 Build 0)  -->
<svg version="1.1" id="Camada_1" xmlns="http://www.w3.org/2000/svg" xmlns:xlink="http://www.w3.org/1999/xlink" x="0px" y="0px"
	 viewBox="0 0 356.2 76" style="enable-background:new 0 0 356.2 76;" xml:space="preserve">
<style type="text/css">
	.st0{clip-path:url(#SVGID_2_);}
</style>
<g>
	<defs>
		<rect id="SVGID_1_" y="0" width="356.2" height="76"/>
	</defs>
	<clipPath id="SVGID_2_">
		<use xlink:href="#SVGID_1_"  style="overflow:visible;"/>
	</clipPath>
	<path class="st0" d="M231.7,35.3c-0.6-0.4-1.2-0.8-1.8-1.2c-0.3-0.2-0.7-0.4-1-0.7c-0.3-0.2-0.6-0.4-0.9-0.5
		c-1.1-0.7-2.2-1.3-3.4-1.9c-0.5-0.3-0.9-0.5-1.4-0.8c-0.2-0.1-0.5-0.2-0.7-0.4c-4.6-2.3-9.6-4.5-14.6-6.8c-4.1-1.9-6.8-3.9-8.4-6
		c-0.1-0.1-0.2-0.2-0.2-0.4c-0.2-0.4-0.4-0.7-0.6-1.1c-0.1-0.2-0.2-0.5-0.3-0.7c-0.4-1-0.6-2-0.6-3c0-1.1,0.2-2.1,0.6-3.1
		c0.2-0.5,0.5-1,0.8-1.5c1.9-3,5.5-5.2,10-5.8c0.7-0.1,1.4-0.1,2.2-0.1c0.2,0,0.5,0,0.7,0c2.8-0.1,7.1,0.3,10.3,2
		c0.3,0.1,0.5,0.3,0.8,0.5c0.8,0.5,1.4,1,2,1.7c0.4,0.6,0.4,1.2,0.3,1.8c-0.1,0.3-0.2,0.6-0.4,0.8c-1.6,2.2-6.4,4.2-6.7,8.2
		c0,0.4,0,0.7,0,1.1c0,0.2,0,0.3,0,0.5c0.2,1.9,0.9,3.5,2.1,4.8c0.3,0.4,0.7,0.7,1.1,1c1.9,1.5,4.5,2.4,7.3,2.5c0.3,0,0.7,0,1,0
		c0.5,0,1-0.1,1.4-0.2c4.2-1,6.8-4.7,6.8-9.1C237.8,8.9,228.5,0,212.1,0c-0.3,0-0.5,0-0.8,0c-0.1,0-0.1,0-0.2,0c-0.2,0-0.4,0-0.6,0
		c-0.1,0-0.1,0-0.2,0c-0.3,0-0.5,0-0.8,0c0,0-0.1,0-0.1,0c-0.2,0-0.4,0-0.7,0c-0.1,0-0.1,0-0.2,0c-0.2,0-0.5,0-0.7,0.1
		c0,0-0.1,0-0.1,0c-0.3,0-0.5,0.1-0.8,0.1c-0.1,0-0.1,0-0.2,0c-0.2,0-0.4,0-0.6,0.1c-0.1,0-0.1,0-0.2,0c-0.3,0-0.5,0.1-0.8,0.1
		c0,0,0,0,0,0c-0.3,0-0.5,0.1-0.8,0.1c-0.1,0-0.1,0-0.2,0c-0.2,0-0.5,0.1-0.7,0.1c0,0-0.1,0-0.1,0c-0.3,0.1-0.5,0.1-0.8,0.2
		c0,0-0.1,0-0.1,0c-0.2,0.1-0.5,0.1-0.7,0.2c-0.1,0-0.1,0-0.2,0c-0.5,0.1-1.1,0.3-1.6,0.4c0,0-0.1,0-0.1,0c-0.2,0.1-0.5,0.1-0.7,0.2
		c0,0-0.1,0-0.1,0c-0.5,0.2-1.1,0.3-1.6,0.5c0,0-0.1,0-0.1,0c-0.5,0.2-1,0.4-1.5,0.6c0,0,0,0-0.1,0c-0.2,0.1-0.5,0.2-0.7,0.3
		c0,0,0,0-0.1,0c-0.5,0.2-1,0.5-1.5,0.7c0,0,0,0-0.1,0c-0.2,0.1-0.5,0.3-0.7,0.4c0,0,0,0,0,0c-0.5,0.3-0.9,0.6-1.4,0.9
		c0,0,0,0-0.1,0c-0.4,0.3-0.9,0.6-1.3,0.9c0,0,0,0,0,0c-0.2,0.2-0.4,0.3-0.6,0.5c0,0,0,0,0,0c-0.4,0.3-0.8,0.7-1.2,1.1c0,0,0,0,0,0
		c-0.4,0.4-0.7,0.8-1.1,1.2c0,0,0,0,0,0c0,0,0,0,0,0c-0.1,0.2-0.3,0.3-0.4,0.5c0,0,0,0-0.1,0.1c-0.1,0.2-0.3,0.3-0.4,0.5
		c0,0,0,0,0,0.1c-0.3,0.4-0.5,0.8-0.8,1.2c0,0,0,0,0,0c-0.1,0.2-0.2,0.4-0.3,0.6c0,0,0,0.1-0.1,0.1c-0.1,0.2-0.2,0.3-0.3,0.5
		c0,0,0,0.1-0.1,0.1c-0.1,0.2-0.2,0.4-0.3,0.6c0,0,0,0,0,0c-0.1,0.2-0.2,0.4-0.3,0.7c0,0,0,0,0,0c-0.1,0.2-0.1,0.4-0.2,0.6
		c0,0.1,0,0.1-0.1,0.2c-0.1,0.2-0.1,0.3-0.2,0.5c0,0.1,0,0.1-0.1,0.2c0,0.2-0.1,0.4-0.1,0.5c0,0.1,0,0.1,0,0.2
		c-0.1,0.2-0.1,0.5-0.1,0.7c0,0,0,0,0,0.1c0,0.2-0.1,0.4-0.1,0.6c0,0.1,0,0.1,0,0.2c0,0.2,0,0.3-0.1,0.5c0,0.1,0,0.2,0,0.3
		c0,0.2,0,0.3,0,0.5c0,0.1,0,0.2,0,0.2c0,0.2,0,0.5,0,0.8c0,0,0,0.1,0,0.1c0,0.4,0,0.7,0,1.1c0,0,0,0,0,0c0,0.2,0,0.5,0.1,0.7
		c0,0,0,0,0,0c0,0.2,0.1,0.5,0.1,0.7c0,0,0,0,0,0.1c0,0.2,0.1,0.5,0.1,0.7c0,0,0,0,0,0.1c0,0.2,0.1,0.4,0.1,0.7c0,0,0,0.1,0,0.1
		c0.1,0.2,0.1,0.4,0.2,0.6c0,0,0,0.1,0,0.1c0.1,0.2,0.1,0.4,0.2,0.6c0,0,0,0.1,0,0.1c0.1,0.2,0.2,0.4,0.2,0.6c0,0,0,0.1,0.1,0.1
		c0.1,0.2,0.2,0.4,0.3,0.6c0,0,0,0.1,0.1,0.1c0.1,0.2,0.2,0.4,0.3,0.6c0,0.1,0.1,0.1,0.1,0.2c0.1,0.2,0.2,0.4,0.3,0.6
		c0,0.1,0.1,0.1,0.1,0.2c0.1,0.2,0.2,0.4,0.3,0.6c0,0.1,0.1,0.1,0.1,0.2c0.1,0.2,0.2,0.4,0.4,0.5c0,0.1,0.1,0.1,0.1,0.2
		c0.1,0.2,0.3,0.4,0.4,0.5c0.1,0.1,0.1,0.1,0.2,0.2c0.1,0.2,0.3,0.4,0.4,0.5c0.1,0.1,0.1,0.1,0.2,0.2c0.1,0.2,0.3,0.3,0.4,0.5
		c0.1,0.1,0.1,0.2,0.2,0.2c0.2,0.2,0.3,0.3,0.5,0.5c0.1,0.1,0.2,0.2,0.2,0.2c0.2,0.2,0.3,0.3,0.5,0.5c0.1,0.1,0.2,0.2,0.3,0.3
		c0.2,0.2,0.3,0.3,0.5,0.5c0.1,0.1,0.2,0.2,0.3,0.3c0.2,0.2,0.4,0.3,0.5,0.5c0.1,0.1,0.2,0.2,0.3,0.3c0.2,0.2,0.4,0.3,0.6,0.5
		c0.1,0.1,0.2,0.2,0.4,0.3c0.2,0.2,0.4,0.3,0.6,0.5c0.1,0.1,0.3,0.2,0.4,0.3c0.2,0.2,0.4,0.3,0.6,0.5c0.1,0.1,0.3,0.2,0.4,0.3
		c0.2,0.1,0.4,0.3,0.6,0.4c0.2,0.1,0.3,0.2,0.5,0.3c0.2,0.1,0.4,0.3,0.6,0.4c0.2,0.1,0.4,0.2,0.5,0.3c0.2,0.1,0.4,0.3,0.7,0.4
		c0.2,0.1,0.4,0.2,0.6,0.4c0.2,0.1,0.4,0.3,0.7,0.4c0.2,0.1,0.4,0.3,0.7,0.4c0.2,0.1,0.4,0.3,0.7,0.4c0.2,0.1,0.5,0.3,0.7,0.4
		c0.2,0.1,0.4,0.2,0.7,0.4c0.3,0.1,0.5,0.3,0.8,0.4c0.2,0.1,0.4,0.2,0.6,0.4c0.3,0.2,0.6,0.3,0.9,0.5c0.2,0.1,0.4,0.2,0.6,0.3
		c0.4,0.2,0.9,0.5,1.4,0.7c0.1,0,0.1,0.1,0.2,0.1c2.9,1.5,5.5,2.9,7.8,4.2c0.3,0.2,0.7,0.4,1,0.6c0.6,0.3,1.1,0.7,1.6,1
		c2.3,1.4,4.2,2.8,5.8,4.2c0.2,0.2,0.4,0.4,0.7,0.6c0.4,0.4,0.8,0.8,1.2,1.1c0.2,0.2,0.4,0.4,0.5,0.6c0.2,0.2,0.4,0.5,0.6,0.7
		c0.2,0.2,0.4,0.5,0.5,0.7c0.5,0.7,0.9,1.4,1.2,2.1c0.1,0.3,0.2,0.6,0.3,0.8c0.3,0.8,0.4,1.6,0.4,2.4c0,3.9-2.5,6.9-6.3,8.7
		c-0.2,0.1-0.4,0.2-0.7,0.3c-2.9,1.2-6.4,1.9-10.2,1.9c-6.1,0-12.3-1.5-16.6-4.1c-0.2-0.1-0.5-0.3-0.7-0.4c-0.3-0.2-0.6-0.4-0.8-0.6
		c-2.5-1.8-4-3.9-4.1-6.3c0-0.1,0-0.2,0-0.3c0.1-0.8,0.3-1.3,0.6-1.7c0,0,0,0,0,0c0.4-0.4,0.9-0.6,1.4-0.6c0.4,0,0.8,0.2,1.1,0.3
		c1.1,0.4,2.1,1.1,4,1.1c4,0,6.5-3,7.1-6.7c0-0.1,0-0.3,0.1-0.4c0-0.4,0.1-0.8,0.1-1.3c0-1.1-0.1-2.2-0.3-3.1
		c-0.2-0.9-0.5-1.8-0.9-2.6c-0.1-0.2-0.2-0.3-0.2-0.4c-1.8-3.1-4.9-4.6-8.3-4.6c-3-0.1-6,1.1-8.3,3.1c-0.7,0.6-1.3,1.3-1.8,2
		c-0.4,0.5-0.7,1-1,1.6c-0.3,0.6-0.5,1.1-0.7,1.7c-0.3,1-0.5,2.1-0.6,3.3c0,0.2,0,0.5,0,0.7c0,1.1,0.1,2.1,0.3,3.1
		c0.1,0.8,0.3,1.5,0.6,2.3c3.2,10.1,15.7,15.3,29.2,15.3c21.7,0,31.5-9.6,31.5-24.3C241.8,44.9,237.8,39.7,231.7,35.3"/>
	<path class="st0" d="M286.2,54.4c-0.2,7-1,12-2.3,14.9c-1.3,2.9-4,4.4-8,4.4c-2.8,0-4.9-0.7-6.2-2c-1.4-1.3-2.3-3.4-2.8-6.2
		c-0.5-2.8-0.8-7.1-0.8-12.9V21.2c0.1-6.5,0.9-11.3,2.3-14.3c1.4-3,4-4.5,7.7-4.5c3.7,0,6.2,1.4,7.7,4.2c1.4,2.8,2.3,7.4,2.5,14
		V54.4z M276.1,0.1c-10.6,0-18.7,3.3-24.4,10c-5.7,6.7-8.6,16.1-8.6,28.2c0,12,2.7,21.3,8.1,27.9c5.4,6.6,13.6,9.9,24.7,9.9
		c11.6,0,20.2-3.4,25.9-10.3c5.7-6.9,8.6-16.6,8.6-29.2c0-11.9-2.9-20.9-8.8-27.2C295.7,3.2,287.2,0.1,276.1,0.1"/>
	<path class="st0" d="M322.6,0.4c0.6,0,1,0.1,1.3,0.4c0.3,0.3,0.4,0.8,0.4,1.5v15.3c0,0.5,0.1,1,0.3,1.3c0.2,0.4,0.5,0.8,1,1.3
		c0.4,0.5,0.7,0.9,0.9,1.2c0.2,0.3,0.3,0.7,0.3,1.1c0,0.9-0.5,1.6-1.4,2.2c-0.9,0.6-2,0.9-3.4,0.9c-1.8,0-3.2-0.4-4.2-1.1
		c-1-0.7-1.5-1.6-1.5-2.6c0-0.3,0.1-0.6,0.2-0.8c0.1-0.2,0.4-0.3,0.6-0.3c0.1,0,0.2,0,0.3,0c0.1,0,0.2,0.1,0.3,0.1
		c0.4,0.2,0.7,0.3,1.1,0.3c0.8,0,1.5-0.3,2-0.8c0.5-0.5,0.7-1.2,0.7-1.9c0-1-0.3-1.8-0.9-2.3c-0.6-0.6-1.4-0.8-2.2-0.8
		c-1,0-1.9,0.4-2.6,1.1c-0.7,0.7-1.1,1.8-1.1,3.1c0,1.1,0.3,2.2,0.9,3.2c0.6,1,1.4,1.8,2.6,2.4c1.1,0.6,2.5,0.9,4.1,0.9h0.3
		c2.7,0,4.7-0.7,6.1-2.2c1.4-1.4,2.1-3.5,2.1-6.1V2.3c0-0.7,0.1-1.2,0.4-1.5c0.3-0.3,0.7-0.4,1.3-0.4V0h-9.7V0.4z"/>
	<path class="st0" d="M354.6,24.5c-0.5-0.5-1-1.3-1.5-2.4l-5.9-13.6l3.8-5.2c0.7-0.9,1.3-1.6,1.8-2c0.5-0.4,1.1-0.7,1.9-0.8V0h-7
		v0.4c0.2,0.5,0.5,0.9,1,1.4c0.3,0.2,0.4,0.4,0.5,0.6c0.1,0.2,0.2,0.4,0.2,0.7c0,0.6-0.6,1.7-1.7,3.4l-5.8,8.5V2.3
		c0-0.7,0.1-1.2,0.4-1.5c0.3-0.3,0.7-0.4,1.3-0.4V0h-9.7v0.4c0.6,0,1,0.1,1.3,0.4c0.3,0.3,0.4,0.8,0.4,1.5v21.1
		c0,0.7-0.1,1.2-0.4,1.5c-0.3,0.3-0.7,0.4-1.3,0.4v0.4h9.7v-0.4c-0.6,0-1-0.1-1.3-0.4c-0.3-0.3-0.4-0.8-0.4-1.5v-7.6l1.2-1.7
		l3.3,7.9c0.4,1,0.6,1.7,0.6,2.2c0,0.4-0.1,0.7-0.4,0.8c-0.2,0.2-0.6,0.3-1.1,0.3v0.4h10.7v-0.4C355.6,25.3,355.1,25,354.6,24.5"/>
	<path class="st0" d="M118.7,36.5c-4.1-3.6-9.7-5.4-16.9-5.4c-1.2,0-2.9,0.1-5.3,0.4c4.5-1.6,8.5-3.6,11.9-6
		c4.3-2.9,7.5-6.1,9.7-9.4c2.2-3.3,3.3-6.5,3.3-9.6c0-1.7-0.3-3-0.8-3.9c-0.5-0.9-1.2-1.4-2.1-1.4c-0.8,0-1.8,0.5-3.3,1.5
		c-1.4,1-2.8,1.8-4.1,2.3c-1.3,0.5-2.9,0.8-4.8,0.8c-1.5,0-3-0.2-4.4-0.7c-1.4-0.5-3.2-1.2-5.4-2.1c-2.3-1.1-4.4-1.9-6.2-2.4
		c-1.8-0.5-3.6-0.8-5.5-0.8c-3.6,0-7,1.6-10.2,4.8c-3.2,3.2-5.2,8.4-6.2,15.7l0.8,0.3c1.2-2.7,2.6-4.7,4.3-6
		c1.7-1.3,3.5-1.9,5.3-1.9c1.3,0,2.7,0.2,4.1,0.7c1.4,0.5,3.1,1.2,5.1,2.2c2.8,1.3,5.4,2.2,7.5,3c2.2,0.7,4.5,1.1,6.9,1.1
		c3.4,0,6.5-0.9,9.2-2.8c2.7-1.9,4.5-4.8,5.5-8.7h0.4c-0.3,3.9-2.1,7.5-5.2,10.9c-3.1,3.4-6.9,6.4-11.3,8.9c-4.4,2.5-8.7,4.3-13,5.3
		l0.3,0.9c1.5-0.4,2.9-0.6,4.1-0.6c4.1,0,7.4,1.5,9.9,4.6c2.5,3.1,3.7,7.9,3.7,14.4c0,7.1-1.6,12.5-4.8,16
		c-3.2,3.6-7.4,5.3-12.7,5.3h-0.4c-2.6,0-5.3-0.5-8-1.5c-2.8-1-5.1-2.3-6.9-4c-1.8-1.6-2.7-3.4-2.7-5.2c0-0.6,0.1-1,0.4-1.4
		c0.3-0.3,0.7-0.5,1.3-0.5c0.4,0,1,0.2,1.9,0.5c0.5,0.2,1.1,0.5,1.8,0.6c0.7,0.2,1.5,0.3,2.6,0.3c2.5,0,4.5-0.9,6-2.6
		c1.5-1.8,2.2-3.8,2.2-6.2c0-3.3-1-5.8-3-7.5c-2-1.8-4.4-2.6-7.3-2.6c-3,0-5.7,1.1-8.1,3.4c-2.4,2.3-3.6,5.3-3.6,9.2
		c0,3.4,1,6.5,3.1,9.5c2.1,3,5.2,5.4,9.4,7.3c4.1,1.9,9.2,2.8,15.3,2.8h0.4c7.1,0,13-1.1,17.7-3.2c4.7-2.1,8.2-5,10.4-8.7
		c2.3-3.6,3.4-7.9,3.4-12.6C124.8,45.1,122.8,40.1,118.7,36.5"/>
	<path class="st0" d="M72.4,3.4V2H49.7v1.3c6.4,0.8,9.6,4.7,9.6,11.9c0,3.1-0.5,6.5-1.5,10.1l-9.9,36.4c-1.1,4-2.5,7-4.3,9
		c-1.8,2-4.1,3-7,3c-2.9,0-4.9-0.7-6.2-2.1c-1.3-1.4-1.9-3.2-1.9-5.4c0-1.5,0.3-3,0.9-4.3c0.6-1.3,1.5-3,2.7-5
		c1.7-2.4,2.9-4.6,3.8-6.5c0.9-1.9,1.3-4,1.3-6.5c0-1.7-0.2-3.4-0.7-5.1L30,12.1c-0.7-3-1-4.7-1-5.3c0-2.3,1.4-3.5,4.3-3.5V2H0v1.3
		c2.1,0,3.7,0.5,4.7,1.6c1,1.1,1.9,2.8,2.6,5.2l13.9,51.7c1.3,4.6,3.1,8.2,5.3,10.5c2.2,2.4,5.4,3.6,9.4,3.6c3.8,0,6.7-1.1,8.9-3.3
		c2.2-2.2,3.9-5.5,5-9.8l11.9-44.1c1.4-5.5,2.9-9.3,4.4-11.3C67.7,5.5,69.8,4.1,72.4,3.4"/>
	<path class="st0" d="M156.9,74.3c-2.8,0-5-2.3-5-5V7c0-2.7-2.2-4.9-4.9-4.9h-22.1v1.2h0.6c2.8,0,5,2.3,5,5v61c0,2.8-2.3,5-5,5h-0.6
		v1.2h32.6l0-1.2H156.9z"/>
	<path class="st0" d="M178.5,0c-5.9-0.3-10.9,1.5-14.8,4l0,0c0,0-0.2,0.1-0.5,0.3c-1.8,1.1-3.3,2.4-4.5,3.6
		c-1.2,1.1-2.6,2.5-3.7,4.1c-0.6,0.8-0.9,1.3-0.9,1.3l0,0.1c-1.9,3-3.3,6.5-2.9,10.4l0.7,1.2c0,0,0.1-0.8,0.4-2l-0.4,2
		c3.9-21.4,14.1-17,22.4-11.8c3.1,2,7.2,1.2,9.4-1.7c0-0.1,0.1-0.1,0.1-0.2C187.1,6.8,184.1,0.3,178.5,0"/>
</g>
</svg>
