<?xml version="1.0" standalone="no"?>
<!DOCTYPE svg PUBLIC "-//W3C//DTD SVG 20010904//EN"
 "http://www.w3.org/TR/2001/REC-SVG-20010904/DTD/svg10.dtd">
<svg version="1.0" xmlns="http://www.w3.org/2000/svg"
 width="1002.000000pt" height="115.000000pt" viewBox="0 0 1002.000000 115.000000"
 preserveAspectRatio="xMidYMid meet">

<g transform="translate(0.000000,115.000000) scale(0.100000,-0.100000)"
fill="#fff" stroke="none">
<path d="M6830 1038 l0 -117 42 -48 c126 -147 671 -743 679 -743 4 0 127 129
271 287 l263 287 3 -347 2 -347 90 0 90 0 0 572 c0 314 -2 569 -3 567 -2 -2
-163 -175 -357 -384 -194 -209 -354 -381 -355 -383 -2 -2 -490 518 -688 733
l-36 40 -1 -117z"/>
<path d="M10 1132 c0 -6 95 -129 211 -274 117 -145 216 -269 222 -276 7 -9
-51 -87 -213 -288 -122 -152 -220 -278 -217 -280 2 -2 264 -3 582 -2 l578 3
-222 275 c-121 151 -221 277 -221 280 0 3 99 129 220 280 121 151 220 279 220
284 0 5 -24 6 -52 2 -29 -3 -60 -6 -69 -6 -8 0 -113 -119 -234 -265 -120 -146
-222 -265 -225 -265 -5 0 -292 341 -435 516 -13 16 -145 30 -145 16z m745
-784 l166 -203 -166 -3 c-91 -1 -240 -1 -331 0 l-166 3 164 202 c89 111 164
202 165 202 1 1 77 -90 168 -201z"/>
<path d="M387 1012 c54 -65 121 -146 148 -179 28 -34 52 -62 55 -62 6 0 283
338 288 351 2 4 -130 8 -292 8 l-297 0 98 -118z"/>
<path d="M1480 570 l0 -560 355 0 356 0 -3 78 -3 77 -257 3 -258 2 0 480 0
480 -95 0 -95 0 0 -560z"/>
<path d="M2700 732 c0 -440 2 -458 63 -548 39 -59 114 -117 187 -146 84 -33
235 -37 320 -8 127 42 222 125 260 226 19 52 20 77 20 464 l0 410 -90 0 -90 0
0 -398 c0 -393 0 -398 -22 -442 -83 -164 -342 -171 -435 -13 l-28 48 -3 403
-3 402 -89 0 -90 0 0 -398z"/>
<path d="M4050 1000 l0 -130 95 0 95 0 0 61 0 61 158 -4 c129 -3 163 -7 192
-22 63 -34 96 -65 125 -118 68 -125 12 -279 -125 -342 -42 -20 -62 -21 -292
-20 l-248 1 0 -239 0 -238 95 0 95 0 0 164 0 164 178 4 c149 4 187 9 237 27
119 43 210 123 257 227 34 76 32 209 -4 287 -53 112 -180 208 -316 236 -30 6
-158 11 -297 11 l-245 0 0 -130z"/>
<path d="M5450 1045 l0 -75 435 0 435 0 0 75 0 75 -435 0 -435 0 0 -75z"/>
<path d="M9170 713 c-124 -224 -262 -473 -307 -555 l-81 -148 101 0 102 0 204
365 c112 201 208 364 212 363 5 -2 78 -127 163 -278 l154 -275 -159 -3 -159
-2 0 -85 0 -85 309 0 309 0 -114 207 c-63 115 -201 364 -307 556 -105 191
-194 347 -197 347 -3 0 -107 -183 -230 -407z"/>
<path d="M5450 335 l0 -325 435 0 435 0 0 75 0 75 -340 0 -340 0 0 170 0 170
130 0 130 0 0 80 0 80 -225 0 -225 0 0 -325z"/>
<path d="M6830 331 l0 -321 95 0 95 0 0 219 0 218 -86 99 c-48 54 -91 101 -95
102 -5 2 -9 -141 -9 -317z"/>
</g>
</svg>
